<?xml version="1.0" standalone="no"?>
<!DOCTYPE svg PUBLIC "-//W3C//DTD SVG 20010904//EN"
 "http://www.w3.org/TR/2001/REC-SVG-20010904/DTD/svg10.dtd">
<svg version="1.0" xmlns="http://www.w3.org/2000/svg"
 width="717" height="382" viewBox="-26.57 -26.57 717.49 382.24"
 preserveAspectRatio="xMidYMid meet">
<metadata>
Created by potrace 1.16, written by Peter Selinger 2001-2019
</metadata>
<g transform="translate(-240.828263,737.572360) scale(0.100000,-0.100000)"
fill="#0000FF" stroke="none">
<path d="M5415 7374 c-281 -22 -689 -105 -957 -195 -648 -217 -1192 -553
-1674 -1034 -116 -115 -248 -256 -293 -313 l-83 -103 78 -97 c122 -152 489
-512 639 -628 288 -222 490 -352 760 -487 441 -221 888 -354 1405 -419 141
-18 756 -18 900 0 161 20 448 77 614 122 585 161 1144 457 1618 856 194 163
419 392 571 581 l59 72 -78 98 c-43 54 -173 193 -289 308 -343 343 -669 581
-1090 795 -435 221 -871 358 -1343 421 -126 17 -220 22 -472 24 -173 1 -337 1
-365 -1z m585 -314 c500 -102 918 -496 1045 -985 104 -401 23 -819 -221 -1145
-250 -334 -612 -529 -1034 -556 -350 -23 -746 127 -1003 380 -184 181 -311
396 -371 627 -123 474 7 958 348 1300 218 219 473 346 786 395 113 18 322 10
450 -16z"/>
<path d="M5542 6834 c-347 -58 -658 -290 -822 -614 -121 -240 -145 -542 -65
-811 86 -285 300 -541 565 -674 570 -286 1249 -53 1527 525 61 125 91 252 100
411 24 434 -206 840 -591 1045 -216 115 -477 158 -714 118z m375 -168 c187
-40 335 -118 472 -250 152 -147 249 -329 281 -529 16 -97 8 -311 -15 -397 -23
-87 -94 -238 -149 -314 -103 -144 -296 -291 -451 -344 -146 -49 -345 -67 -486
-43 -79 13 -223 63 -294 101 -203 110 -375 315 -450 537 -55 162 -63 374 -20
537 93 354 363 615 720 696 101 23 296 26 392 6z"/>
<path d="M5610 6254 c-199 -43 -368 -214 -409 -412 -37 -178 19 -362 149 -492
304 -305 839 -139 910 282 65 386 -267 705 -650 622z"/>
</g>
</svg>
